<svg width="51" height="40" viewBox="0 0 51 40" fill="none" xmlns="http://www.w3.org/2000/svg">
<g clip-path="url(#clip0_223_294)">
<path d="M1.97009 11.1163H36.9431C37.2003 11.1156 37.4551 11.1659 37.6927 11.2644C37.9303 11.3629 38.1459 11.5077 38.3271 11.6902C38.6932 12.058 38.8994 12.5553 38.901 13.0742V38.0462C38.9017 38.3028 38.8513 38.5569 38.7527 38.7938C38.6542 39.0307 38.5095 39.2457 38.3271 39.4261C38.2969 39.46 38.2628 39.4901 38.2253 39.5156C37.8699 39.8338 37.4079 40.0067 36.9309 40H1.95788C1.43932 40 0.941948 39.7943 0.574893 39.428C0.207838 39.0617 0.00108672 38.5648 8.6398e-06 38.0462V13.0742C-0.000758606 12.817 0.0495821 12.5622 0.148107 12.3246C0.246632 12.0871 0.391378 11.8714 0.573938 11.6902C0.941417 11.3238 1.4389 11.1175 1.95788 11.1163H1.97009ZM13.0864 8.6398e-06H48.0594C48.3166 -0.000758606 48.5714 0.0495821 48.809 0.148107C49.0466 0.246632 49.2622 0.391378 49.4434 0.573938C49.8095 0.941667 50.0157 1.43898 50.0173 1.95788V26.9299C50.018 27.1865 49.9676 27.4406 49.8691 27.6775C49.7705 27.9144 49.6258 28.1294 49.4434 28.3098C49.4142 28.3447 49.3799 28.3749 49.3416 28.3993C48.9846 28.7272 48.5157 28.9063 48.0309 28.9H45.8411V26.5473H47.6768V2.32422H13.4568V4.03379H11.1163V1.95788C11.1156 1.70068 11.1659 1.4459 11.2644 1.20832C11.3629 0.970742 11.5077 0.755107 11.6903 0.573938C12.058 0.207836 12.5553 0.00159529 13.0742 8.6398e-06H13.0864ZM7.53028 5.5602H42.5033C42.7599 5.55952 43.014 5.60992 43.2509 5.70845C43.4879 5.80699 43.7028 5.95169 43.8832 6.13413C44.2498 6.49985 44.4562 6.99616 44.4571 7.514V32.486C44.4579 32.7432 44.4075 32.998 44.309 33.2356C44.2105 33.4732 44.0658 33.6888 43.8832 33.87C43.853 33.9038 43.8188 33.9338 43.7814 33.9595C43.426 34.2777 42.964 34.4506 42.487 34.4439H40.2972V32.1075H42.1329V7.88441H7.89662V9.59398H5.55613V7.514C5.55721 6.99545 5.76396 6.4985 6.13101 6.13221C6.49807 5.76591 6.99545 5.5602 7.514 5.5602H7.53028ZM10.0458 17.9098C10.6016 17.909 11.1452 18.0732 11.6077 18.3815C12.0702 18.6898 12.4308 19.1284 12.6439 19.6418C12.857 20.1551 12.9129 20.7202 12.8047 21.2654C12.6964 21.8106 12.4289 22.3114 12.0358 22.7044C11.6428 23.0974 11.142 23.365 10.5968 23.4733C10.0516 23.5815 9.48656 23.5255 8.97319 23.3125C8.45982 23.0994 8.02122 22.7388 7.71292 22.2763C7.40462 21.8138 7.24048 21.2702 7.24128 20.7144C7.24128 20.3461 7.31382 19.9814 7.45476 19.6411C7.5957 19.3009 7.80228 18.9917 8.06271 18.7313C8.32313 18.4708 8.6323 18.2643 8.97256 18.1233C9.31282 17.9824 9.67751 17.9098 10.0458 17.9098ZM21.85 29.9542L27.4713 20.2341L33.4344 35.319H5.60497V33.4507L7.9414 33.3327L10.2819 27.6015L11.4501 31.6964H14.9588L17.9994 23.8608L21.8582 29.942L21.85 29.9542ZM36.5768 13.4324H2.3405V37.6636H36.5768V13.4324Z" fill="#394E84" fill-opacity="0.3"/>
</g>
<defs>
<clipPath id="clip0_223_294">
<rect width="50.0173" height="40" fill="white"/>
</clipPath>
</defs>
</svg>
