<svg width="36" height="46" viewBox="0 0 36 46" fill="none" xmlns="http://www.w3.org/2000/svg">
<g clip-path="url(#clip0_225_374)">
<path fill-rule="evenodd" clip-rule="evenodd" d="M18.0366 0.145528C18.8443 0.109831 19.4815 0.393626 20.124 0.800579C20.9397 1.31819 21.858 2.34004 22.9914 2.98795C24.5862 3.90002 27.5402 2.64257 29.0529 4.88973C29.3358 5.31096 29.533 5.70275 29.6713 6.074L25.1797 9.39387C23.4635 7.36536 20.9013 6.07668 18.0366 6.07668C12.8712 6.07668 8.68473 10.264 8.68473 15.4285C8.68473 17.2848 9.22466 19.0144 10.1573 20.4673L6.13147 23.473C5.91371 22.2923 6.21268 21.3338 5.70309 20.1549C5.38539 19.4204 4.01282 18.7752 3.36134 17.6159C2.40553 15.9131 2.79196 14.28 4.64734 11.8267C5.76735 10.3443 5.96012 9.33676 6.03062 8.24263C6.09666 7.22703 6.1386 6.19983 7.02033 4.88973C8.53302 2.64257 11.487 3.90002 13.0809 2.98795C14.2152 2.34004 15.1335 1.31819 15.9492 0.800579C16.5917 0.393626 17.2289 0.109831 18.0366 0.145528ZM18.2936 10.4951L19.6626 13.7008L23.1342 14.0122C23.3805 14.0337 23.4769 14.3389 23.294 14.4995L20.6675 16.7931L21.4448 20.1924C21.5002 20.4387 21.2262 20.6243 21.02 20.4878L18.0366 18.7047L15.0434 20.494C14.831 20.6216 14.5748 20.4271 14.6284 20.1924L15.4057 16.7931L12.7783 14.4995C12.5892 14.3335 12.7007 14.0256 12.947 14.0114L16.4097 13.7008L17.7796 10.4934C17.8769 10.2649 18.2008 10.2711 18.2936 10.4951Z" fill="url(#paint0_linear_225_374)"/>
<path fill-rule="evenodd" clip-rule="evenodd" d="M29.6713 6.07579C29.9426 6.79063 29.9926 7.48941 30.0426 8.24263C30.1131 9.33676 30.3058 10.3443 31.425 11.8267C33.2803 14.28 33.6677 15.9131 32.7119 17.6159C32.0604 18.7752 30.6869 19.4204 30.3701 20.1549C29.6945 21.7194 30.4415 22.8974 29.516 24.7206C28.8744 25.9843 27.8829 26.817 26.5638 27.2427C25.4501 27.6014 24.3336 27.082 23.4421 27.4577C21.8768 28.1155 20.7219 29.6442 19.4752 30.0315C18.9951 30.1806 18.5149 30.2537 18.0366 30.2511C17.5582 30.2537 17.0781 30.1806 16.598 30.0315C15.3512 29.6442 14.1964 28.1155 12.6311 27.4577C11.7395 27.082 10.6231 27.6014 9.50934 27.2427C8.19032 26.817 7.19882 25.9843 6.55715 24.7206C6.34743 24.311 6.20732 23.8907 6.12521 23.44L10.1564 20.4673C11.819 23.0616 14.7265 24.7813 18.0366 24.7813C23.202 24.7813 27.3885 20.594 27.3885 15.4285C27.3885 13.1269 26.5567 11.0199 25.177 9.39031L29.6713 6.07579Z" fill="url(#paint1_linear_225_374)"/>
<path fill-rule="evenodd" clip-rule="evenodd" d="M2.11906 42.208L6.41883 41.4369L8.55087 45.253C10.0966 47.1681 11.0791 44.0187 11.5111 42.921L15.6582 35.097C14.7007 34.7677 13.5503 33.8092 12.3643 32.7365C10.002 32.7856 7.80122 32.376 6.18144 30.3126L1.41403 39.5217L0.99994 40.4061C0.675092 41.5547 0.846441 42.3142 2.11906 42.208ZM33.9541 42.208L29.6544 41.4369L27.5223 45.253C25.9766 47.1681 24.9941 44.0187 24.5621 42.921L20.4149 35.097C21.3725 34.7677 22.5229 33.8092 23.7089 32.7365C26.0712 32.7856 28.272 32.376 29.8918 30.3126L34.6592 39.5217L35.0733 40.4061C35.3981 41.5547 35.2268 42.3142 33.9541 42.208Z" fill="#9F5A19"/>
</g>
<defs>
<linearGradient id="paint0_linear_225_374" x1="18.0366" y1="0.145528" x2="18.0384" y2="17.8256" gradientUnits="userSpaceOnUse">
<stop stop-color="#FDB71A"/>
<stop offset="0.541" stop-color="#FFA600"/>
<stop offset="1" stop-color="#F59B04"/>
</linearGradient>
<linearGradient id="paint1_linear_225_374" x1="18.0366" y1="0.145534" x2="18.0384" y2="32.011" gradientUnits="userSpaceOnUse">
<stop stop-color="#FDA113"/>
<stop offset="0.541" stop-color="#FF9500"/>
<stop offset="1" stop-color="#F88D04"/>
</linearGradient>
<clipPath id="clip0_225_374">
<rect width="34.3589" height="45.7143" fill="white" transform="translate(0.857147 0.142853)"/>
</clipPath>
</defs>
</svg>
