<svg width="53" height="82" viewBox="0 0 53 82" fill="none" xmlns="http://www.w3.org/2000/svg">
<g clip-path="url(#clip0_230_606)">
<path fill-rule="evenodd" clip-rule="evenodd" d="M26.306 0.338165C27.5428 0.274814 28.5185 0.77846 29.5024 1.50067C30.7514 2.41927 32.1576 4.23271 33.8931 5.38254C36.3351 7.00118 40.8584 4.76962 43.1747 8.75761C43.6079 9.50516 43.9099 10.2004 44.1217 10.8593L37.2439 16.751C34.616 13.151 30.6927 10.8641 26.306 10.8641C18.3965 10.8641 11.986 18.2952 11.986 27.4606C11.986 30.7549 12.8128 33.8243 14.2408 36.4027L8.07631 41.7369C7.74287 39.6416 8.20066 37.9406 7.42036 35.8484C6.93387 34.5449 4.83212 33.3998 3.83454 31.3425C2.37097 28.3206 2.96269 25.4223 5.80374 21.0684C7.51876 18.4377 7.81393 16.6496 7.92189 14.7079C8.02301 12.9056 8.08724 11.0826 9.43739 8.75761C11.7537 4.76962 16.277 7.00118 18.7176 5.38254C20.4545 4.23271 21.8607 2.41927 23.1097 1.50067C24.0936 0.77846 25.0693 0.274814 26.306 0.338165ZM26.6996 18.7054L28.7959 24.3944L34.1118 24.9471C34.4889 24.9851 34.6365 25.5268 34.3564 25.8119L30.3346 29.8822L31.5249 35.9149C31.6096 36.352 31.1901 36.6815 30.8744 36.4391L26.306 33.2747L21.7226 36.4502C21.3974 36.6767 21.0052 36.3314 21.0872 35.9149L22.2775 29.8822L18.2543 25.8119C17.9646 25.5173 18.1355 24.9709 18.5126 24.9455L23.8148 24.3944L25.9125 18.7022C26.0614 18.2968 26.5575 18.3079 26.6996 18.7054Z" fill="url(#paint0_linear_230_606)"/>
<path fill-rule="evenodd" clip-rule="evenodd" d="M44.1217 10.8624C44.5372 12.131 44.6137 13.3711 44.6902 14.7078C44.7982 16.6496 45.0933 18.4377 46.807 21.0684C49.648 25.4222 50.2411 28.3205 48.7776 31.3424C47.78 33.3998 45.6769 34.5449 45.1917 35.8483C44.1573 38.6247 45.3011 40.7153 43.884 43.951C42.9014 46.1936 41.3832 47.6713 39.3634 48.4268C37.658 49.0635 35.9484 48.1417 34.5832 48.8085C32.1863 49.9757 30.418 52.6888 28.5089 53.3761C27.7737 53.6406 27.0385 53.7705 26.3061 53.7658C25.5736 53.7705 24.8384 53.6406 24.1032 53.3761C22.1941 52.6888 20.4258 49.9757 18.0289 48.8085C16.6637 48.1417 14.9541 49.0635 13.2487 48.4268C11.2289 47.6713 9.7107 46.1936 8.72815 43.951C8.40701 43.224 8.19246 42.4781 8.06674 41.6783L14.2394 36.4026C16.7853 41.0067 21.2375 44.0587 26.3061 44.0587C34.2156 44.0587 40.6261 36.6275 40.6261 27.4605C40.6261 23.3759 39.3525 19.6366 37.2398 16.7446L44.1217 10.8624Z" fill="url(#paint1_linear_230_606)"/>
<path fill-rule="evenodd" clip-rule="evenodd" d="M1.93229 74.9854L8.51631 73.617L11.781 80.3893C14.1479 83.7882 15.6524 78.199 16.3138 76.2509L22.6642 62.3658C21.1979 61.7814 19.4364 60.0804 17.6203 58.1766C14.003 58.2638 10.6331 57.5368 8.15281 53.8751L0.852717 70.2182L0.218639 71.7878C-0.278784 73.8261 -0.0164069 75.1739 1.93229 74.9854ZM50.6798 74.9854L44.0957 73.617L40.8311 80.3893C38.4642 83.7882 36.9596 78.199 36.2982 76.2509L29.9479 62.3658C31.4142 61.7814 33.1757 60.0804 34.9918 58.1766C38.6091 58.2638 41.979 57.5368 44.4592 53.8751L51.7593 70.2182L52.3934 71.7878C52.8908 73.8261 52.6285 75.1739 50.6798 74.9854Z" fill="#9F5A19"/>
</g>
<defs>
<linearGradient id="paint0_linear_230_606" x1="26.306" y1="0.338165" x2="26.3097" y2="31.7147" gradientUnits="userSpaceOnUse">
<stop stop-color="#FDB71A"/>
<stop offset="0.541" stop-color="#FFA600"/>
<stop offset="1" stop-color="#F59B04"/>
</linearGradient>
<linearGradient id="paint1_linear_230_606" x1="26.3061" y1="0.338093" x2="26.3097" y2="56.889" gradientUnits="userSpaceOnUse">
<stop stop-color="#FDA113"/>
<stop offset="0.541" stop-color="#FF9500"/>
<stop offset="1" stop-color="#F88D04"/>
</linearGradient>
<clipPath id="clip0_230_606">
<rect width="52.6121" height="81.1282" fill="white" transform="translate(0 0.333344)"/>
</clipPath>
</defs>
</svg>
