<svg width="68" height="90" viewBox="0 0 68 90" fill="none" xmlns="http://www.w3.org/2000/svg">
<g clip-path="url(#clip0_274_62)">
<path fill-rule="evenodd" clip-rule="evenodd" d="M33.822 0.00528715C35.4121 -0.0649924 36.6666 0.49373 37.9316 1.29492C39.5375 2.31397 41.3454 4.32572 43.5768 5.6013C46.7166 7.39694 52.5322 4.92134 55.5103 9.34544C56.0672 10.1747 56.4555 10.9461 56.7279 11.677L47.885 18.213C44.5063 14.2193 39.462 11.6822 33.822 11.6822C23.6526 11.6822 15.4105 19.926 15.4105 30.0937C15.4105 33.7483 16.4735 37.1533 18.3096 40.0137L10.3838 45.9312C9.95509 43.6067 10.5437 41.7197 9.54044 39.3987C8.91495 37.9527 6.2127 36.6824 4.9301 34.4001C3.04836 31.0478 3.80914 27.8325 7.46192 23.0025C9.66694 20.0842 10.0464 18.1005 10.1853 15.9464C10.3153 13.947 10.3978 11.9247 12.1338 9.34544C15.1118 4.92134 20.9275 7.39694 24.0655 5.6013C26.2986 4.32572 28.1065 2.31397 29.7124 1.29492C30.9775 0.49373 32.2319 -0.0649924 33.822 0.00528715ZM34.328 20.3811L37.0233 26.6922L43.8579 27.3054C44.3429 27.3475 44.5326 27.9484 44.1724 28.2647L39.0016 32.7802L40.532 39.4725C40.6409 39.9575 40.1015 40.3229 39.6956 40.0541L33.822 36.5436L27.9291 40.0664C27.5109 40.3176 27.0067 39.9346 27.1121 39.4725L28.6424 32.7802L23.4698 28.2647C23.0974 27.9379 23.317 27.3317 23.8019 27.3036L30.619 26.6922L33.316 20.3776C33.5075 19.9278 34.1453 19.9401 34.328 20.3811Z" fill="url(#paint0_linear_274_62)"/>
<path fill-rule="evenodd" clip-rule="evenodd" d="M56.7279 11.6805C57.2621 13.0878 57.3604 14.4636 57.4588 15.9464C57.5976 18.1005 57.9771 20.0842 60.1804 23.0025C63.8332 27.8325 64.5957 31.0478 62.714 34.4001C61.4314 36.6824 58.7274 37.9527 58.1037 39.3987C56.7736 42.4787 58.2442 44.798 56.4222 48.3875C55.1589 50.8754 53.2069 52.5147 50.6101 53.3527C48.4174 54.0591 46.2194 53.0365 44.4641 53.7762C41.3824 55.0711 39.1088 58.0808 36.6543 58.8433C35.7091 59.1367 34.7638 59.2808 33.8221 59.2756C32.8803 59.2808 31.9351 59.1367 30.9898 58.8433C28.5353 58.0808 26.2617 55.0711 23.18 53.7762C21.4247 53.0365 19.2267 54.0591 17.034 53.3527C14.4372 52.5147 12.4852 50.8754 11.2219 48.3875C10.809 47.581 10.5332 46.7535 10.3715 45.8662L18.3078 40.0137C21.5811 45.1213 27.3054 48.507 33.8221 48.507C43.9915 48.507 52.2336 40.2632 52.2336 30.0937C52.2336 25.5624 50.596 21.4142 47.8797 18.2059L56.7279 11.6805Z" fill="url(#paint1_linear_274_62)"/>
<path fill-rule="evenodd" clip-rule="evenodd" d="M2.48439 82.8157L10.9496 81.2977L15.147 88.8105C18.1901 92.581 20.1246 86.3806 20.9749 84.2195L29.1397 68.816C27.2544 68.1677 24.9897 66.2807 22.6546 64.1688C18.0039 64.2654 13.6711 63.4589 10.4822 59.3968L1.09636 77.5272L0.281121 79.2683C-0.358423 81.5296 -0.0210815 83.0248 2.48439 82.8157ZM65.1597 82.8157L56.6945 81.2977L52.4971 88.8105C49.454 92.581 47.5195 86.3806 46.6692 84.2195L38.5044 68.816C40.3897 68.1677 42.6544 66.2807 44.9895 64.1688C49.6402 64.2654 53.973 63.4589 57.1619 59.3968L66.5477 77.5272L67.363 79.2683C68.0025 81.5296 67.6652 83.0248 65.1597 82.8157Z" fill="#9F5A19"/>
</g>
<defs>
<linearGradient id="paint0_linear_274_62" x1="33.822" y1="0.00528715" x2="33.8255" y2="34.813" gradientUnits="userSpaceOnUse">
<stop stop-color="#FDB71A"/>
<stop offset="0.541" stop-color="#FFA600"/>
<stop offset="1" stop-color="#F59B04"/>
</linearGradient>
<linearGradient id="paint1_linear_274_62" x1="33.8221" y1="0.00528918" x2="33.8256" y2="62.7403" gradientUnits="userSpaceOnUse">
<stop stop-color="#FDA113"/>
<stop offset="0.541" stop-color="#FF9500"/>
<stop offset="1" stop-color="#F88D04"/>
</linearGradient>
<clipPath id="clip0_274_62">
<rect width="67.6441" height="90" fill="white"/>
</clipPath>
</defs>
</svg>
