<svg width="54" height="46" viewBox="0 0 54 46" fill="none" xmlns="http://www.w3.org/2000/svg">
<path d="M26.0125 15.4025H42.6268L50.4222 46L53.1506 10.7252H9.4956L8.82181 19.4381H23.3865L26.0125 15.4025Z" fill="#5467EA"/>
<path d="M48.9126 8.29375L25.1046 2.80112L17.3509 36.4096L41.1589 41.9023L48.9126 8.29375Z" fill="#F1AA70"/>
<path opacity="0.35" d="M41.1236 5.02495L16.9126 1.73376L12.2665 35.9114L36.4776 39.2026L41.1236 5.02495Z" fill="#2E3E8E"/>
<path d="M40.8094 3.99503L16.7059 0.000167847L11.0665 34.026L35.1701 38.0209L40.8094 3.99503Z" fill="#BDCDEC"/>
<path d="M30.3283 17.2231C30.0866 17.2231 29.8488 17.1104 29.6976 16.8991L23.2608 7.90563C23.0117 7.55761 23.0919 7.07355 23.4399 6.82446C23.7879 6.57537 24.272 6.65557 24.5211 7.0036L30.9576 15.9971C31.2067 16.3451 31.1265 16.8292 30.7784 17.0783C30.6421 17.1762 30.4845 17.2231 30.3283 17.2231Z" fill="#52617F"/>
<path d="M22.6131 15.9448C22.3714 15.9448 22.1336 15.8321 21.9824 15.6208C21.7333 15.2728 21.8135 14.7887 22.1616 14.5396L31.1551 8.10313C31.5031 7.85404 31.9871 7.93424 32.2362 8.28227C32.4853 8.63029 32.4051 9.11435 32.0571 9.36344L23.0636 15.7999C22.9269 15.8975 22.7693 15.9448 22.6131 15.9448Z" fill="#52617F"/>
<path opacity="0.35" d="M41.7011 17.1076H45.2576L50.4222 46L41.7011 17.1076Z" fill="#2E3E8E"/>
<path d="M50.4222 46L43.655 19.4381L42.6268 15.4025H26.0124L23.3865 19.4381H0L6.76722 46H50.4222Z" fill="#A2B2EE"/>
<path d="M4.74797 22.942H10.3997C10.6856 22.942 10.9764 23.1738 11.0492 23.4597C11.1219 23.7455 10.9492 23.9773 10.6633 23.9773H5.01155C4.72571 23.9773 4.43492 23.7455 4.36214 23.4597C4.28935 23.1738 4.46177 22.942 4.74797 22.942Z" fill="#BDCDEC"/>
<path d="M5.62493 26.3852H17.9637C18.2496 26.3852 18.5403 26.617 18.6131 26.9028C18.6859 27.1887 18.5131 27.4204 18.2273 27.4204H5.88886C5.60302 27.4204 5.31224 27.1887 5.23945 26.9028C5.16631 26.617 5.33909 26.3852 5.62493 26.3852Z" fill="#BDCDEC"/>
<path d="M6.50223 29.8283H18.841C19.1269 29.8283 19.4176 30.0601 19.4904 30.346C19.5632 30.6318 19.3904 30.8636 19.1046 30.8636H6.76617C6.48033 30.8636 6.18954 30.6318 6.11676 30.346C6.04362 30.0601 6.21639 29.8283 6.50223 29.8283Z" fill="#BDCDEC"/>
</svg>
